# xmcd
#
# Track frame offsets:
#	150
#	14753
#	34161
#	52381
#	69845
#	84907
#	103559
#	121401
#	139783
#	153873
#	172930
#	188802
#	205402
#	221462
#	234310
#	249183
#	266971
#	282033
#	300280
#	317501
#
# Disc length: 4399 seconds
#
# Revision: 6
# Processed by: cddbd v1.5.2PL0 Copyright (c) Steve Scherf et al.
# Submitted via: audiograbber 1.83.01
#
DISCID=0e112d14
DTITLE=Leandro e Leonardo - As 20 Mais
DYEAR=2000
DGENRE=Sertanejo
TTITLE0=Leandro e Leonardo - Sublime Renuncia
TTITLE1=Leandro e Leonardo - Talisma
TTITLE2=Leandro e Leonardo - Temporal de Amor
TTITLE3=Leandro e Leonardo - Doce Misterio
TTITLE4=Leandro e Leonardo - Nao olhe assim
TTITLE5=Leandro e Leonardo - Desculpe mas eu vou chorar
TTITLE6=Leandro e Leonardo - Solidao
TTITLE7=Leandro e Leonardo - Sonho por sonho
TTITLE8=Leandro e Leonardo - Nao aprendi dizer adeus
TTITLE9=Leandro e Leonardo - Eu Juro
TTITLE10=Leandro e Leonardo - Paz na cama
TTITLE11=Leandro e Leonardo - Esta noite foi maravilhosa
TTITLE12=Leandro e Leonardo - Quem sera esta mulher
TTITLE13=Leandro e Leonardo - Contradicoes
TTITLE14=Leandro e Leonardo - Pense em mim
TTITLE15=Leandro e Leonardo - O cheiro da maca
TTITLE16=Leandro e Leonardo - Entre tapas e beijos
TTITLE17=Leandro e Leonardo - Em nome do amor
TTITLE18=Leandro e Leonardo - E por voce que canto
TTITLE19=Leandro e Leonardo - Pra nunca dizer adeus
EXTD=
EXTT0=
EXTT1=
EXTT2=
EXTT3=
EXTT4=
EXTT5=
EXTT6=
EXTT7=
EXTT8=
EXTT9=
EXTT10=
EXTT11=
EXTT12=
EXTT13=
EXTT14=
EXTT15=
EXTT16=
EXTT17=
EXTT18=
EXTT19=
PLAYORDER=
